<?xml version="1.0" encoding="UTF-8"?>
<svg id="Camada_2" data-name="Camada 2" xmlns="http://www.w3.org/2000/svg" viewBox="0 0 1603.66 321.56">
  <defs>
    <style>
      .cls-1, .cls-2 {
        letter-spacing: -.09em;
      }

      .cls-1, .cls-2, .cls-3, .cls-4 {
        font-size: 275.89px;
      }

      .cls-1, .cls-3, .cls-4 {
        font-family: DINPro-Bold, 'DIN Pro';
        font-weight: 700;
      }

      .cls-2, .cls-5, .cls-6 {
        font-family: DINPro, 'DIN Pro';
      }

      .cls-7 {
        letter-spacing: .63em;
      }

      .cls-3 {
        letter-spacing: -.1em;
      }

      .cls-8 {
        letter-spacing: .62em;
      }

      .cls-5 {
        font-size: 167.39px;
        letter-spacing: -.09em;
      }

      .cls-9 {
        fill: #878787;
      }

      .cls-10 {
        letter-spacing: .63em;
      }

      .cls-4 {
        letter-spacing: -.09em;
      }

      .cls-6 {
        font-size: 36.78px;
      }
    </style>
  </defs>
  <g id="Camada_1-2" data-name="Camada 1">
    <g>
      <g>
        <text transform="translate(462.09 239.56)"><tspan><tspan class="cls-1" x="0" y="0">Shuff</tspan><tspan class="cls-3" x="543.78" y="0">l</tspan><tspan class="cls-4" x="605.85" y="0">e</tspan><tspan class="cls-5" x="732.21" y="0">&amp;</tspan><tspan class="cls-2" x="840.85" y="0">Go</tspan></tspan></text>
        <text class="cls-6" transform="translate(462.29 313.14)"><tspan class="cls-8" x="0" y="0">C</tspan><tspan class="cls-10" x="46.23" y="0">ARDS IN HAND, </tspan><tspan class="cls-8" x="637.75" y="0">W</tspan><tspan class="cls-7" x="691.96" y="0">ORLD AHEAD</tspan></text>
      </g>
      <g>
        <path d="M179.29,182.63l.15-.11-42.81-10.12,13.22-14.17,56.37,3.5,77.33-60.03-95.44-2.97,15.59-18.42,121.18-10.69,51.53-40c2.58-2.06,5.17-3.89,7.75-5.56-6.1-14.13-20.13-24.04-36.5-24.04h-204.79c-21.97,0-39.77,17.81-39.77,39.77v142.76c0,10.93,8.86,19.8,19.8,19.8,12.73,0,25.24-2.08,42.88-10.89l13.73-8.54-.21-.28Z"/>
        <path class="cls-9" d="M348.22,95.37l-12.42,89.78-18.89,8.19.73-76.82-123.86,85.63h0s-51.01,32.75-73.05,57.31c-9.71,10.82-12.09,21.26-11.71,29.57.56,12.3,8.92,22.89,20.52,27.02,4.17,1.48,8.65,2.29,13.33,2.29h204.79c21.97,0,39.77-17.81,39.77-39.77V68.27l-39.2,27.1Z"/>
        <path class="cls-9" d="M386.8,68.79c14.33-9.83,29.75-19.83,38.22-35.51,2.57-4.8,4.6-11.58,1.59-16.25-5.47-5.25-14.72-3.49-21.45-1.94-7.37,1.82-14.5,5.45-21.03,8.97,9.57-6.23,20.61-11.43,32.28-11.5,3.9.08,8.23.81,10.97,3.9,5.84,10.26-5.54,24.1-12.44,31.18-8.23,8.36-18.47,14.96-28.13,21.16h0Z"/>
        <g>
          <path d="M93.89,215.8v-54.81l-.93-120.58L26.65,79.42c-4.79,2.82-6.56,8.56-4.73,13.62l71.97,122.76Z"/>
          <path d="M93.89,236.47l-54.29-92.2L1.26,212.38c-2.72,4.84-.84,10.41,3.68,13.38l88.94,50.74v-40.02Z"/>
        </g>
      </g>
    </g>
  </g>
</svg>