<?xml version="1.0" encoding="UTF-8"?>
<svg id="Camada_2" data-name="Camada 2" xmlns="http://www.w3.org/2000/svg" viewBox="0 0 1141.57 768.83">
  <defs>
    <style>
      .cls-1, .cls-2 {
        letter-spacing: -.09em;
      }

      .cls-1, .cls-2, .cls-3, .cls-4 {
        font-size: 275.89px;
      }

      .cls-1, .cls-3, .cls-4 {
        font-family: DINPro-Bold, 'DIN Pro';
        font-weight: 700;
      }

      .cls-2, .cls-5, .cls-6 {
        font-family: DINPro, 'DIN Pro';
      }

      .cls-7 {
        letter-spacing: .63em;
      }

      .cls-3 {
        letter-spacing: -.1em;
      }

      .cls-8 {
        letter-spacing: .62em;
      }

      .cls-5 {
        font-size: 167.39px;
        letter-spacing: -.09em;
      }

      .cls-9 {
        fill: #878787;
      }

      .cls-10 {
        letter-spacing: .63em;
      }

      .cls-4 {
        letter-spacing: -.09em;
      }

      .cls-6 {
        font-size: 36.78px;
      }
    </style>
  </defs>
  <g id="Camada_1-2" data-name="Camada 1">
    <g>
      <g>
        <path d="M527.26,234.36l.19-.15-54.94-12.99,16.97-18.18,72.34,4.49,99.23-77.04-122.48-3.82,20-23.64,155.51-13.72,66.12-51.33c3.31-2.64,6.64-4.99,9.94-7.13-7.83-18.13-25.83-30.85-46.84-30.85h-262.8c-28.19,0-51.04,22.85-51.04,51.04v183.2c0,14.03,11.37,25.41,25.41,25.41,16.34,0,32.4-2.66,55.02-13.98l17.62-10.95-.27-.36Z"/>
        <path class="cls-9" d="M744.05,122.38l-15.94,115.21-24.24,10.51.94-98.58-158.95,109.89h0s-65.46,42.02-93.74,73.54c-12.46,13.88-15.51,27.28-15.03,37.94.72,15.79,11.44,29.37,26.33,34.68,5.35,1.9,11.1,2.94,17.1,2.94h262.8c28.19,0,51.04-22.85,51.04-51.04V87.61l-50.3,34.78Z"/>
        <path class="cls-9" d="M793.56,88.29c18.42-12.59,38.23-25.4,49.13-45.53,3.26-6.29,6.06-14.57,2-21.06-1.33-1.44-3.78-2.91-6.02-3.47-7.06-1.95-14.58-.73-21.6,1.01-9.47,2.39-18.57,6.97-26.95,11.65,13.27-8.59,32.79-17.67,48.83-13.61,2.42.69,4.79,1.93,6.52,3.87,4.25,6.85,1.32,15.43-2.13,21.95-11.11,20.06-31.19,33.14-49.79,45.18h0Z"/>
        <g>
          <path d="M417.66,276.94v-70.34l-1.2-154.74-85.09,50.06c-6.15,3.62-8.42,10.98-6.07,17.48l92.36,157.54Z"/>
          <path d="M417.66,303.46l-69.67-118.31-49.19,87.4c-3.5,6.21-1.08,13.35,4.72,17.17l114.14,65.11v-51.36Z"/>
        </g>
      </g>
      <g>
        <text transform="translate(0 686.83)"><tspan><tspan class="cls-1" x="0" y="0">Shuff</tspan><tspan class="cls-3" x="543.78" y="0">l</tspan><tspan class="cls-4" x="605.85" y="0">e</tspan><tspan class="cls-5" x="732.21" y="0">&amp;</tspan><tspan class="cls-2" x="840.85" y="0">Go</tspan></tspan></text>
        <text class="cls-6" transform="translate(.2 760.41)"><tspan class="cls-8" x="0" y="0">C</tspan><tspan class="cls-10" x="46.23" y="0">ARDS IN HAND, </tspan><tspan class="cls-8" x="637.75" y="0">W</tspan><tspan class="cls-7" x="691.96" y="0">ORLD AHEAD</tspan></text>
      </g>
    </g>
  </g>
</svg>