<?xml version="1.0" encoding="UTF-8"?>
<svg id="Camada_2" data-name="Camada 2" xmlns="http://www.w3.org/2000/svg" xmlns:xlink="http://www.w3.org/1999/xlink" viewBox="0 0 1603.65 321.56">
  <defs>
    <style>
      .cls-1, .cls-2 {
        letter-spacing: -.09em;
      }

      .cls-1, .cls-2, .cls-3, .cls-4 {
        font-size: 275.89px;
      }

      .cls-1, .cls-3, .cls-4 {
        font-family: DINPro-Bold, 'DIN Pro';
        font-weight: 700;
      }

      .cls-5 {
        fill: url(#Gradiente_sem_nome_31);
      }

      .cls-2, .cls-6, .cls-7 {
        font-family: DINPro, 'DIN Pro';
      }

      .cls-8 {
        letter-spacing: .63em;
      }

      .cls-9 {
        fill: url(#Gradiente_sem_nome_17);
      }

      .cls-10, .cls-7 {
        fill: #575756;
      }

      .cls-3 {
        letter-spacing: -.1em;
      }

      .cls-11 {
        letter-spacing: .62em;
      }

      .cls-6 {
        font-size: 167.39px;
        letter-spacing: -.09em;
      }

      .cls-7 {
        font-size: 36.78px;
      }

      .cls-12 {
        letter-spacing: .63em;
      }

      .cls-4 {
        letter-spacing: -.09em;
      }

      .cls-13 {
        fill: #223728;
      }
    </style>
    <linearGradient id="Gradiente_sem_nome_31" data-name="Gradiente sem nome 31" x1="108.98" y1="193.3" x2="387.42" y2="193.3" gradientUnits="userSpaceOnUse">
      <stop offset="0" stop-color="#be9a50"/>
      <stop offset=".19" stop-color="#c09e54"/>
      <stop offset=".42" stop-color="#c9a962"/>
      <stop offset=".66" stop-color="#d7bd7a"/>
      <stop offset=".91" stop-color="#ebd89a"/>
      <stop offset="1" stop-color="#f4e4a9"/>
    </linearGradient>
    <linearGradient id="Gradiente_sem_nome_17" data-name="Gradiente sem nome 17" x1="383.88" y1="40.71" x2="429.06" y2="40.71" gradientUnits="userSpaceOnUse">
      <stop offset="0" stop-color="#be9a50"/>
      <stop offset="1" stop-color="#f4e4a9"/>
    </linearGradient>
  </defs>
  <g id="Camada_1-2" data-name="Camada 1">
    <g>
      <g>
        <text class="cls-10" transform="translate(462.09 239.56)"><tspan class="cls-1" x="0" y="0">Shuff</tspan><tspan class="cls-3" x="543.78" y="0">l</tspan><tspan class="cls-4" x="605.85" y="0">e</tspan><tspan class="cls-6" x="732.21" y="0">&amp;</tspan><tspan class="cls-2" x="840.85" y="0">Go</tspan></text>
        <text class="cls-7" transform="translate(462.29 313.14)"><tspan class="cls-11" x="0" y="0">C</tspan><tspan class="cls-12" x="46.23" y="0">ARDS IN HAND, </tspan><tspan class="cls-11" x="637.75" y="0">W</tspan><tspan class="cls-8" x="691.96" y="0">ORLD AHEAD</tspan></text>
      </g>
      <g>
        <path class="cls-13" d="M179.29,182.63l.15-.11-42.81-10.12,13.22-14.17,56.37,3.5,77.33-60.03-95.44-2.97,15.59-18.42,121.18-10.69,51.53-40c2.58-2.06,5.17-3.89,7.75-5.56-6.1-14.13-20.13-24.04-36.5-24.04h-204.79c-21.97,0-39.77,17.81-39.77,39.77v142.76c0,10.93,8.86,19.8,19.8,19.8,12.73,0,25.24-2.08,42.88-10.89l13.73-8.54-.21-.28Z"/>
        <path class="cls-5" d="M348.22,95.37l-12.42,89.78-18.89,8.19.73-76.82-123.86,85.63h0s-51.01,32.75-73.05,57.31c-9.71,10.82-12.09,21.26-11.71,29.57.56,12.3,8.92,22.89,20.52,27.02,4.17,1.48,8.65,2.29,13.33,2.29h204.79c21.97,0,39.77-17.81,39.77-39.77V68.27l-39.2,27.1Z"/>
        <path class="cls-9" d="M386.8,68.79c4.81-3.36,9.69-6.65,14.45-10.06,4.72-3.48,9.19-7.29,13.27-11.49,4.05-4.21,7.77-8.8,10.49-13.96,1.34-2.57,2.43-5.3,2.89-8.14.48-2.81.2-5.82-1.35-8.17l.05.06c-1.23-1.32-2.9-2.21-4.68-2.72-1.78-.53-3.67-.73-5.55-.76-3.77-.03-7.55.59-11.23,1.53-7.37,1.94-14.38,5.17-20.98,9.06l-.05-.08c6.39-4.23,13.35-7.75,20.8-9.83,3.72-1.04,7.57-1.74,11.48-1.68,1.95.03,3.91.23,5.81.8,1.89.54,3.74,1.51,5.11,3.03l.02.03.02.03c1.68,2.64,1.91,5.9,1.37,8.83-.52,2.96-1.67,5.74-3.06,8.35-2.82,5.22-6.62,9.81-10.75,14-4.14,4.19-8.7,7.94-13.48,11.37-4.83,3.36-9.73,6.58-14.6,9.87l-.06-.08Z"/>
        <g>
          <path class="cls-13" d="M93.89,215.8v-54.81l-.93-120.58L26.65,79.42c-4.79,2.82-6.56,8.56-4.73,13.62l71.97,122.76Z"/>
          <path class="cls-13" d="M93.89,236.47l-54.29-92.2L1.26,212.38c-2.72,4.84-.84,10.41,3.68,13.38l88.94,50.74v-40.02Z"/>
        </g>
      </g>
    </g>
  </g>
</svg>