<?xml version="1.0" encoding="UTF-8"?>
<svg id="Camada_2" data-name="Camada 2" xmlns="http://www.w3.org/2000/svg" xmlns:xlink="http://www.w3.org/1999/xlink" viewBox="0 0 899.69 973.02">
  <defs>
    <style>
      .cls-1 {
        fill: url(#Gradiente_sem_nome_31);
      }

      .cls-2, .cls-3, .cls-4 {
        font-family: DINPro-Bold, 'DIN Pro';
        font-weight: 700;
      }

      .cls-2, .cls-3, .cls-4, .cls-5 {
        font-size: 217.33px;
      }

      .cls-2, .cls-5 {
        letter-spacing: -.09em;
      }

      .cls-6 {
        fill: url(#Gradiente_sem_nome_17);
      }

      .cls-3 {
        letter-spacing: -.1em;
      }

      .cls-7 {
        fill: #223728;
      }

      .cls-4 {
        letter-spacing: -.09em;
      }

      .cls-5 {
        fill: #575756;
      }

      .cls-5, .cls-8 {
        font-family: DINPro, 'DIN Pro';
      }

      .cls-8 {
        font-size: 131.86px;
        letter-spacing: -.09em;
      }
    </style>
    <linearGradient id="Gradiente_sem_nome_31" data-name="Gradiente sem nome 31" x1="228.67" y1="405.61" x2="812.93" y2="405.61" gradientUnits="userSpaceOnUse">
      <stop offset="0" stop-color="#be9a50"/>
      <stop offset=".19" stop-color="#c09e54"/>
      <stop offset=".42" stop-color="#c9a962"/>
      <stop offset=".66" stop-color="#d7bd7a"/>
      <stop offset=".91" stop-color="#ebd89a"/>
      <stop offset="1" stop-color="#f4e4a9"/>
    </linearGradient>
    <linearGradient id="Gradiente_sem_nome_17" data-name="Gradiente sem nome 17" x1="805.79" y1="85.67" x2="899.76" y2="85.67" gradientUnits="userSpaceOnUse">
      <stop offset="0" stop-color="#be9a50"/>
      <stop offset="1" stop-color="#f4e4a9"/>
    </linearGradient>
  </defs>
  <g id="Camada_1-2" data-name="Camada 1">
    <g>
      <text transform="translate(0 908.9)"><tspan><tspan class="cls-4" x="0" y="0">Shuff</tspan><tspan class="cls-3" x="428.35" y="0">l</tspan><tspan class="cls-2" x="477.25" y="0">e</tspan><tspan class="cls-8" x="576.79" y="0">&amp;</tspan><tspan class="cls-5" x="662.37" y="0">Go</tspan></tspan></text>
      <g>
        <path class="cls-7" d="M376.21,383.2l.31-.24-89.83-21.23,27.75-29.73,118.28,7.34,162.26-125.97-200.26-6.24,32.7-38.65,254.28-22.44,108.12-83.94c5.42-4.32,10.85-8.16,16.25-11.66-12.8-29.65-42.23-50.44-76.58-50.44h-429.7c-46.09,0-83.45,37.36-83.45,83.45v299.56c0,22.94,18.6,41.54,41.54,41.54,26.72,0,52.97-4.36,89.97-22.85l28.81-17.91-.44-.59Z"/>
        <path class="cls-1" d="M730.68,200.11l-26.07,188.38-39.64,17.18,1.53-161.18-259.9,179.68h0s-107.03,68.71-153.28,120.25c-20.37,22.69-25.36,44.61-24.57,62.04,1.17,25.82,18.71,48.03,43.06,56.7,8.74,3.11,18.15,4.81,27.97,4.81h429.7c46.09,0,83.45-37.36,83.45-83.45V143.25l-82.25,56.86Z"/>
        <path class="cls-6" d="M811.66,144.38l15.23-10.47,7.62-5.23,3.81-2.62,3.75-2.69c9.93-7.28,19.37-15.24,27.97-24.04,4.29-4.4,8.37-9.03,12.11-13.89,3.73-4.88,7.21-9.97,10.04-15.42,2.85-5.42,5.16-11.18,6.16-17.2.5-3,.65-6.07.22-9.07-.42-2.99-1.42-5.9-3.06-8.43l.04.06c-1.31-1.45-2.9-2.64-4.6-3.61-.84-.51-1.75-.89-2.65-1.3-.93-.34-1.84-.72-2.8-.97-3.8-1.14-7.8-1.55-11.78-1.62-3.99-.06-7.99.28-11.94.86-3.96.57-7.89,1.4-11.76,2.42-7.75,2.04-15.31,4.83-22.63,8.14-7.31,3.32-14.42,7.11-21.29,11.3l-.05-.08c6.77-4.34,13.79-8.35,21.1-11.73,7.3-3.41,14.86-6.3,22.64-8.45,7.77-2.15,15.82-3.58,23.94-3.46,4.05.07,8.13.48,12.05,1.66,3.91,1.11,7.7,3.11,10.49,6.19l.02.03.02.03c1.7,2.66,2.73,5.72,3.15,8.83.43,3.11.25,6.27-.28,9.33-1.06,6.15-3.44,11.96-6.33,17.41-2.88,5.48-6.41,10.58-10.18,15.47-3.79,4.87-7.9,9.49-12.23,13.89-8.66,8.79-18.18,16.7-28.17,23.93l-3.77,2.67-3.83,2.59-7.65,5.18-15.3,10.37-.06-.08Z"/>
        <g>
          <path class="cls-7" d="M197,452.82v-115.01l-1.95-253.01L55.92,166.64c-10.06,5.92-13.78,17.96-9.93,28.58l151.01,257.59Z"/>
          <path class="cls-7" d="M197,496.19l-113.92-193.46L2.65,445.65c-5.72,10.16-1.76,21.83,7.71,28.07l186.63,106.46v-83.98Z"/>
        </g>
      </g>
    </g>
  </g>
</svg>