<?xml version="1.0" encoding="UTF-8"?>
<svg id="Camada_2" data-name="Camada 2" xmlns="http://www.w3.org/2000/svg" xmlns:xlink="http://www.w3.org/1999/xlink" viewBox="0 0 1521.69 324.79">
  <defs>
    <style>
      .cls-1 {
        fill: url(#Gradiente_sem_nome_31);
      }

      .cls-2 {
        font-size: 171.21px;
        letter-spacing: -.09em;
      }

      .cls-2, .cls-3 {
        font-family: DINPro, 'DIN Pro';
      }

      .cls-4, .cls-3 {
        letter-spacing: -.09em;
      }

      .cls-4, .cls-3, .cls-5, .cls-6 {
        font-size: 282.18px;
      }

      .cls-4, .cls-5, .cls-6 {
        font-family: DINPro-Bold, 'DIN Pro';
        font-weight: 700;
      }

      .cls-7 {
        fill: url(#Gradiente_sem_nome_17);
      }

      .cls-3 {
        fill: #575756;
      }

      .cls-5 {
        letter-spacing: -.1em;
      }

      .cls-6 {
        letter-spacing: -.09em;
      }

      .cls-8 {
        fill: #223728;
      }
    </style>
    <linearGradient id="Gradiente_sem_nome_31" data-name="Gradiente sem nome 31" x1="78.98" y1="183.75" x2="280.79" y2="183.75" gradientUnits="userSpaceOnUse">
      <stop offset="0" stop-color="#be9a50"/>
      <stop offset=".19" stop-color="#c09e54"/>
      <stop offset=".42" stop-color="#c9a962"/>
      <stop offset=".66" stop-color="#d7bd7a"/>
      <stop offset=".91" stop-color="#ebd89a"/>
      <stop offset="1" stop-color="#f4e4a9"/>
    </linearGradient>
    <linearGradient id="Gradiente_sem_nome_17" data-name="Gradiente sem nome 17" x1="278.15" y1="73.09" x2="311.11" y2="73.09" gradientUnits="userSpaceOnUse">
      <stop offset="0" stop-color="#be9a50"/>
      <stop offset="1" stop-color="#f4e4a9"/>
    </linearGradient>
  </defs>
  <g id="Camada_1-2" data-name="Camada 1">
    <g>
      <text transform="translate(354.11 241.55)"><tspan><tspan class="cls-4" x="0" y="0">Shuff</tspan><tspan class="cls-5" x="556.17" y="0">l</tspan><tspan class="cls-6" x="619.66" y="0">e</tspan><tspan class="cls-2" x="748.9" y="0">&amp;</tspan><tspan class="cls-3" x="860.01" y="0">Go</tspan></tspan></text>
      <g>
        <path class="cls-8" d="M129.94,176.01l.11-.08-31.03-7.33,9.58-10.27,40.85,2.53,56.04-43.51-69.17-2.15,11.3-13.35,87.83-7.75,37.34-28.99c1.87-1.49,3.75-2.82,5.61-4.03-4.42-10.24-14.59-17.42-26.45-17.42H103.54c-15.92,0-28.82,12.91-28.82,28.82v103.47c0,7.92,6.42,14.35,14.35,14.35,9.23,0,18.3-1.5,31.08-7.89l9.95-6.19-.15-.2Z"/>
        <path class="cls-1" d="M252.38,112.77l-9,65.07-13.69,5.93.53-55.67-89.77,62.06h0s-36.97,23.73-52.94,41.53c-7.03,7.84-8.76,15.41-8.49,21.43.4,8.92,6.46,16.59,14.87,19.58,3.02,1.08,6.27,1.66,9.66,1.66h148.42c15.92,0,28.82-12.91,28.82-28.82V93.13l-28.41,19.64Z"/>
        <path class="cls-7" d="M280.33,93.5c3.48-2.44,7.01-4.84,10.45-7.32,3.41-2.53,6.65-5.3,9.59-8.34,2.93-3.05,5.61-6.38,7.57-10.11.97-1.86,1.75-3.83,2.07-5.87.34-2.02.13-4.17-.97-5.83l.04.06c-.88-.93-2.08-1.52-3.34-1.91l-.97-.24c-.33-.07-.66-.09-1-.14-.66-.12-1.34-.11-2.02-.15-2.71-.04-5.44.4-8.1,1.07-2.66.69-5.26,1.64-7.81,2.71-2.54,1.1-5,2.37-7.42,3.74l-.05-.08c2.32-1.53,4.7-3,7.22-4.2,2.51-1.22,5.12-2.25,7.83-3.02,2.7-.77,5.5-1.29,8.35-1.25.71.04,1.43.02,2.14.15.35.06.71.09,1.06.17l1.05.28c1.38.44,2.75,1.11,3.77,2.24l.03.03.02.03c1.24,1.95,1.4,4.35,1,6.49-.39,2.16-1.23,4.19-2.24,6.08-2.06,3.79-4.83,7.12-7.82,10.15-3.01,3.03-6.33,5.75-9.79,8.23-3.51,2.43-7.07,4.75-10.6,7.13l-.06-.08Z"/>
        <g>
          <path class="cls-8" d="M68.04,200.06v-39.73l-.68-87.39-48.05,28.27c-3.48,2.04-4.76,6.2-3.43,9.87l52.16,88.97Z"/>
          <path class="cls-8" d="M68.04,215.04l-39.35-66.82L.92,197.58c-1.97,3.51-.61,7.54,2.66,9.69l64.46,36.77v-29.01Z"/>
        </g>
      </g>
    </g>
  </g>
</svg>