<?xml version="1.0" encoding="UTF-8"?>
<svg id="Camada_2" data-name="Camada 2" xmlns="http://www.w3.org/2000/svg" xmlns:xlink="http://www.w3.org/1999/xlink" viewBox="0 0 1141.57 768.83">
  <defs>
    <style>
      .cls-1, .cls-2 {
        letter-spacing: -.09em;
      }

      .cls-1, .cls-2, .cls-3, .cls-4 {
        font-size: 275.89px;
      }

      .cls-1, .cls-3, .cls-4 {
        font-family: DINPro-Bold, 'DIN Pro';
        font-weight: 700;
      }

      .cls-5 {
        fill: url(#Gradiente_sem_nome_31);
      }

      .cls-2, .cls-6, .cls-7 {
        font-family: DINPro, 'DIN Pro';
      }

      .cls-8 {
        letter-spacing: .63em;
      }

      .cls-9 {
        fill: url(#Gradiente_sem_nome_17);
      }

      .cls-10, .cls-7 {
        fill: #575756;
      }

      .cls-3 {
        letter-spacing: -.1em;
      }

      .cls-11 {
        letter-spacing: .62em;
      }

      .cls-6 {
        font-size: 167.39px;
        letter-spacing: -.09em;
      }

      .cls-7 {
        font-size: 36.78px;
      }

      .cls-12 {
        letter-spacing: .63em;
      }

      .cls-4 {
        letter-spacing: -.09em;
      }

      .cls-13 {
        fill: #223728;
      }
    </style>
    <linearGradient id="Gradiente_sem_nome_31" data-name="Gradiente sem nome 31" x1="437.03" y1="248.06" x2="794.35" y2="248.06" gradientUnits="userSpaceOnUse">
      <stop offset="0" stop-color="#be9a50"/>
      <stop offset=".19" stop-color="#c09e54"/>
      <stop offset=".42" stop-color="#c9a962"/>
      <stop offset=".66" stop-color="#d7bd7a"/>
      <stop offset=".91" stop-color="#ebd89a"/>
      <stop offset="1" stop-color="#f4e4a9"/>
    </linearGradient>
    <linearGradient id="Gradiente_sem_nome_17" data-name="Gradiente sem nome 17" x1="789.88" y1="52.31" x2="847.64" y2="52.31" gradientUnits="userSpaceOnUse">
      <stop offset="0" stop-color="#be9a50"/>
      <stop offset="1" stop-color="#f4e4a9"/>
    </linearGradient>
  </defs>
  <g id="Camada_1-2" data-name="Camada 1">
    <g>
      <g>
        <path class="cls-13" d="M527.26,234.36l.19-.15-54.94-12.99,16.97-18.18,72.34,4.49,99.23-77.04-122.48-3.82,20-23.64,155.51-13.72,66.12-51.33c3.31-2.64,6.64-4.99,9.94-7.13-7.83-18.13-25.83-30.85-46.84-30.85h-262.8c-28.19,0-51.04,22.85-51.04,51.04v183.2c0,14.03,11.37,25.41,25.41,25.41,16.34,0,32.4-2.66,55.02-13.98l17.62-10.95-.27-.36Z"/>
        <path class="cls-5" d="M744.05,122.38l-15.94,115.21-24.24,10.51.94-98.58-158.95,109.89h0s-65.46,42.02-93.74,73.54c-12.46,13.88-15.51,27.28-15.03,37.94.72,15.79,11.44,29.37,26.33,34.68,5.35,1.9,11.1,2.94,17.1,2.94h262.8c28.19,0,51.04-22.85,51.04-51.04V87.61l-50.3,34.78Z"/>
        <path class="cls-9" d="M793.56,88.29c6.18-4.3,12.44-8.52,18.56-12.89,6.06-4.46,11.82-9.34,17.06-14.73,5.21-5.4,10-11.29,13.5-17.92,1.73-3.31,3.14-6.82,3.73-10.48.62-3.62.27-7.52-1.73-10.58l.04.06c-1.6-1.72-3.76-2.88-6.06-3.53-2.3-.69-4.73-.94-7.15-.98-4.86-.05-9.72.77-14.45,1.99-9.47,2.51-18.46,6.69-26.89,11.73l-.05-.08c4.12-2.69,8.4-5.17,12.86-7.27,4.45-2.13,9.08-3.91,13.85-5.23,4.76-1.32,9.7-2.21,14.69-2.13,2.49.04,5,.3,7.42,1.02,2.41.69,4.76,1.92,6.5,3.85l.02.03.02.03c1.05,1.66,1.69,3.55,1.94,5.48.26,1.93.15,3.87-.18,5.76-.66,3.78-2.12,7.35-3.91,10.69-3.61,6.69-8.47,12.58-13.76,17.96-5.31,5.38-11.15,10.2-17.27,14.61-6.19,4.32-12.48,8.46-18.71,12.69l-.06-.08Z"/>
        <g>
          <path class="cls-13" d="M417.66,276.94v-70.34l-1.2-154.74-85.09,50.06c-6.15,3.62-8.42,10.98-6.07,17.48l92.36,157.54Z"/>
          <path class="cls-13" d="M417.66,303.46l-69.67-118.31-49.19,87.4c-3.5,6.21-1.08,13.35,4.72,17.17l114.14,65.11v-51.36Z"/>
        </g>
      </g>
      <g>
        <text class="cls-10" transform="translate(0 686.83)"><tspan class="cls-1" x="0" y="0">Shuff</tspan><tspan class="cls-3" x="543.78" y="0">l</tspan><tspan class="cls-4" x="605.85" y="0">e</tspan><tspan class="cls-6" x="732.21" y="0">&amp;</tspan><tspan class="cls-2" x="840.85" y="0">Go</tspan></text>
        <text class="cls-7" transform="translate(.2 760.41)"><tspan class="cls-11" x="0" y="0">C</tspan><tspan class="cls-12" x="46.23" y="0">ARDS IN HAND, </tspan><tspan class="cls-11" x="637.75" y="0">W</tspan><tspan class="cls-8" x="691.96" y="0">ORLD AHEAD</tspan></text>
      </g>
    </g>
  </g>
</svg>